<svg xmlns="http://www.w3.org/2000/svg" version="1.1" xmlns:xlink="http://www.w3.org/1999/xlink" xmlns:svgjs="http://svgjs.com/svgjs" width="1080" height="720" preserveAspectRatio="none" viewBox="0 0 1080 720"><g mask="url(&quot;#SvgjsMask1027&quot;)" fill="none"><rect width="1080" height="720" x="0" y="0" fill="#0e2a47"></rect><path d="M-89.95 453.15L-89.95 453.15" stroke="#132e65" stroke-width="1.5"></path><path d="M-89.95 453.15L-38.41 619.2" stroke="#132e65" stroke-width="1.5"></path><path d="M-89.95 453.15L92.56 441.72" stroke="#132e65" stroke-width="1.5"></path><path d="M-89.95 453.15L79.94 618.84" stroke="#132e65" stroke-width="1.5"></path><path d="M-89.95 453.15L-79.67 752.42" stroke="#132e65" stroke-width="1.5"></path><path d="M-38.41 619.2L-38.41 619.2" stroke="#132e65" stroke-width="1.5"></path><path d="M-38.41 619.2L79.94 618.84" stroke="#132e65" stroke-width="1.5"></path><path d="M-38.41 619.2L-79.67 752.42" stroke="#132e65" stroke-width="1.5"></path><path d="M-38.41 619.2L176.96 599.8" stroke="#132e65" stroke-width="1.5"></path><path d="M-38.41 619.2L92.56 441.72" stroke="#132e65" stroke-width="1.5"></path><path d="M-38.41 619.2L188.46 748.7" stroke="#132e65" stroke-width="1.5"></path><path d="M-79.67 752.42L-79.67 752.42" stroke="#132e65" stroke-width="1.5"></path><path d="M-79.67 752.42L-98.49 901.09" stroke="#132e65" stroke-width="1.5"></path><path d="M-98.49 901.09L-98.49 901.09" stroke="#132e65" stroke-width="1.5"></path><path d="M-98.49 901.09L65.54 902.92" stroke="#132e65" stroke-width="1.5"></path><path d="M-98.49 901.09L168.85 865.63" stroke="#132e65" stroke-width="1.5"></path><path d="M-98.49 901.09L-38.41 619.2" stroke="#132e65" stroke-width="1.5"></path><path d="M-98.49 901.09L188.46 748.7" stroke="#132e65" stroke-width="1.5"></path><path d="M-98.49 901.09L79.94 618.84" stroke="#132e65" stroke-width="1.5"></path><path d="M92.56 441.72L92.56 441.72" stroke="#132e65" stroke-width="1.5"></path><path d="M92.56 441.72L79.94 618.84" stroke="#132e65" stroke-width="1.5"></path><path d="M92.56 441.72L176.96 599.8" stroke="#132e65" stroke-width="1.5"></path><path d="M79.94 618.84L79.94 618.84" stroke="#132e65" stroke-width="1.5"></path><path d="M79.94 618.84L176.96 599.8" stroke="#132e65" stroke-width="1.5"></path><path d="M79.94 618.84L188.46 748.7" stroke="#132e65" stroke-width="1.5"></path><path d="M79.94 618.84L-79.67 752.42" stroke="#132e65" stroke-width="1.5"></path><path d="M65.54 902.92L65.54 902.92" stroke="#132e65" stroke-width="1.5"></path><path d="M65.54 902.92L168.85 865.63" stroke="#132e65" stroke-width="1.5"></path><path d="M65.54 902.92L188.46 748.7" stroke="#132e65" stroke-width="1.5"></path><path d="M176.96 599.8L176.96 599.8" stroke="#132e65" stroke-width="1.5"></path><path d="M176.96 599.8L188.46 748.7" stroke="#132e65" stroke-width="1.5"></path><path d="M176.96 599.8L337.52 606.35" stroke="#132e65" stroke-width="1.5"></path><path d="M188.46 748.7L188.46 748.7" stroke="#132e65" stroke-width="1.5"></path><path d="M188.46 748.7L168.85 865.63" stroke="#132e65" stroke-width="1.5"></path><path d="M188.46 748.7L347.16 759.28" stroke="#132e65" stroke-width="1.5"></path><path d="M188.46 748.7L332.68 879.3" stroke="#132e65" stroke-width="1.5"></path><path d="M168.85 865.63L168.85 865.63" stroke="#132e65" stroke-width="1.5"></path><path d="M337.52 606.35L337.52 606.35" stroke="#132e65" stroke-width="1.5"></path><path d="M337.52 606.35L481.66 595.78" stroke="#132e65" stroke-width="1.5"></path><path d="M337.52 606.35L347.16 759.28" stroke="#132e65" stroke-width="1.5"></path><path d="M337.52 606.35L471.59 757.84" stroke="#132e65" stroke-width="1.5"></path><path d="M347.16 759.28L347.16 759.28" stroke="#132e65" stroke-width="1.5"></path><path d="M347.16 759.28L332.68 879.3" stroke="#132e65" stroke-width="1.5"></path><path d="M347.16 759.28L471.59 757.84" stroke="#132e65" stroke-width="1.5"></path><path d="M332.68 879.3L332.68 879.3" stroke="#132e65" stroke-width="1.5"></path><path d="M332.68 879.3L484.15 864.03" stroke="#132e65" stroke-width="1.5"></path><path d="M332.68 879.3L168.85 865.63" stroke="#132e65" stroke-width="1.5"></path><path d="M481.54 318.52L481.54 318.52" stroke="#132e65" stroke-width="1.5"></path><path d="M481.54 318.52L478.19 453.18" stroke="#132e65" stroke-width="1.5"></path><path d="M478.19 453.18L478.19 453.18" stroke="#132e65" stroke-width="1.5"></path><path d="M478.19 453.18L600.37 450.72" stroke="#132e65" stroke-width="1.5"></path><path d="M478.19 453.18L481.66 595.78" stroke="#132e65" stroke-width="1.5"></path><path d="M478.19 453.18L337.52 606.35" stroke="#132e65" stroke-width="1.5"></path><path d="M478.19 453.18L761.05 462.85" stroke="#132e65" stroke-width="1.5"></path><path d="M481.66 595.78L481.66 595.78" stroke="#132e65" stroke-width="1.5"></path><path d="M481.66 595.78L471.59 757.84" stroke="#132e65" stroke-width="1.5"></path><path d="M471.59 757.84L471.59 757.84" stroke="#132e65" stroke-width="1.5"></path><path d="M471.59 757.84L484.15 864.03" stroke="#132e65" stroke-width="1.5"></path><path d="M471.59 757.84L608.13 769.66" stroke="#132e65" stroke-width="1.5"></path><path d="M471.59 757.84L332.68 879.3" stroke="#132e65" stroke-width="1.5"></path><path d="M484.15 864.03L484.15 864.03" stroke="#132e65" stroke-width="1.5"></path><path d="M484.15 864.03L615.02 907.29" stroke="#132e65" stroke-width="1.5"></path><path d="M484.15 864.03L608.13 769.66" stroke="#132e65" stroke-width="1.5"></path><path d="M484.15 864.03L347.16 759.28" stroke="#132e65" stroke-width="1.5"></path><path d="M484.15 864.03L744.97 848.97" stroke="#132e65" stroke-width="1.5"></path><path d="M604.09 175.05L604.09 175.05" stroke="#132e65" stroke-width="1.5"></path><path d="M604.09 175.05L759.93 208.68" stroke="#132e65" stroke-width="1.5"></path><path d="M604.09 175.05L481.54 318.52" stroke="#132e65" stroke-width="1.5"></path><path d="M604.09 175.05L767.05 38.79" stroke="#132e65" stroke-width="1.5"></path><path d="M604.09 175.05L775.07 340.73" stroke="#132e65" stroke-width="1.5"></path><path d="M600.37 450.72L600.37 450.72" stroke="#132e65" stroke-width="1.5"></path><path d="M600.37 450.72L761.05 462.85" stroke="#132e65" stroke-width="1.5"></path><path d="M600.37 450.72L481.54 318.52" stroke="#132e65" stroke-width="1.5"></path><path d="M600.37 450.72L481.66 595.78" stroke="#132e65" stroke-width="1.5"></path><path d="M600.37 450.72L775.07 340.73" stroke="#132e65" stroke-width="1.5"></path><path d="M600.37 450.72L757.92 638.18" stroke="#132e65" stroke-width="1.5"></path><path d="M608.13 769.66L608.13 769.66" stroke="#132e65" stroke-width="1.5"></path><path d="M608.13 769.66L615.02 907.29" stroke="#132e65" stroke-width="1.5"></path><path d="M615.02 907.29L615.02 907.29" stroke="#132e65" stroke-width="1.5"></path><path d="M615.02 907.29L744.97 848.97" stroke="#132e65" stroke-width="1.5"></path><path d="M615.02 907.29L471.59 757.84" stroke="#132e65" stroke-width="1.5"></path><path d="M615.02 907.29L769.78 747.71" stroke="#132e65" stroke-width="1.5"></path><path d="M615.02 907.29L854.63 774.17" stroke="#132e65" stroke-width="1.5"></path><path d="M763.45 -86.15L763.45 -86.15" stroke="#132e65" stroke-width="1.5"></path><path d="M763.45 -86.15L767.05 38.79" stroke="#132e65" stroke-width="1.5"></path><path d="M763.45 -86.15L889.77 -85.97" stroke="#132e65" stroke-width="1.5"></path><path d="M763.45 -86.15L856.6 55.17" stroke="#132e65" stroke-width="1.5"></path><path d="M763.45 -86.15L1005.37 -72.16" stroke="#132e65" stroke-width="1.5"></path><path d="M763.45 -86.15L759.93 208.68" stroke="#132e65" stroke-width="1.5"></path><path d="M767.05 38.79L767.05 38.79" stroke="#132e65" stroke-width="1.5"></path><path d="M767.05 38.79L856.6 55.17" stroke="#132e65" stroke-width="1.5"></path><path d="M767.05 38.79L759.93 208.68" stroke="#132e65" stroke-width="1.5"></path><path d="M767.05 38.79L889.77 -85.97" stroke="#132e65" stroke-width="1.5"></path><path d="M767.05 38.79L868.36 201.95" stroke="#132e65" stroke-width="1.5"></path><path d="M759.93 208.68L759.93 208.68" stroke="#132e65" stroke-width="1.5"></path><path d="M759.93 208.68L868.36 201.95" stroke="#132e65" stroke-width="1.5"></path><path d="M759.93 208.68L775.07 340.73" stroke="#132e65" stroke-width="1.5"></path><path d="M775.07 340.73L775.07 340.73" stroke="#132e65" stroke-width="1.5"></path><path d="M775.07 340.73L761.05 462.85" stroke="#132e65" stroke-width="1.5"></path><path d="M775.07 340.73L900.53 356.45" stroke="#132e65" stroke-width="1.5"></path><path d="M775.07 340.73L868.36 201.95" stroke="#132e65" stroke-width="1.5"></path><path d="M775.07 340.73L906.8 485.84" stroke="#132e65" stroke-width="1.5"></path><path d="M761.05 462.85L761.05 462.85" stroke="#132e65" stroke-width="1.5"></path><path d="M761.05 462.85L906.8 485.84" stroke="#132e65" stroke-width="1.5"></path><path d="M761.05 462.85L757.92 638.18" stroke="#132e65" stroke-width="1.5"></path><path d="M757.92 638.18L757.92 638.18" stroke="#132e65" stroke-width="1.5"></path><path d="M757.92 638.18L769.78 747.71" stroke="#132e65" stroke-width="1.5"></path><path d="M757.92 638.18L868.71 603.42" stroke="#132e65" stroke-width="1.5"></path><path d="M757.92 638.18L854.63 774.17" stroke="#132e65" stroke-width="1.5"></path><path d="M769.78 747.71L769.78 747.71" stroke="#132e65" stroke-width="1.5"></path><path d="M769.78 747.71L854.63 774.17" stroke="#132e65" stroke-width="1.5"></path><path d="M769.78 747.71L744.97 848.97" stroke="#132e65" stroke-width="1.5"></path><path d="M769.78 747.71L608.13 769.66" stroke="#132e65" stroke-width="1.5"></path><path d="M744.97 848.97L744.97 848.97" stroke="#132e65" stroke-width="1.5"></path><path d="M744.97 848.97L854.63 774.17" stroke="#132e65" stroke-width="1.5"></path><path d="M744.97 848.97L899.89 851.23" stroke="#132e65" stroke-width="1.5"></path><path d="M744.97 848.97L608.13 769.66" stroke="#132e65" stroke-width="1.5"></path><path d="M889.77 -85.97L889.77 -85.97" stroke="#132e65" stroke-width="1.5"></path><path d="M889.77 -85.97L1005.37 -72.16" stroke="#132e65" stroke-width="1.5"></path><path d="M889.77 -85.97L856.6 55.17" stroke="#132e65" stroke-width="1.5"></path><path d="M889.77 -85.97L1020.81 80.73" stroke="#132e65" stroke-width="1.5"></path><path d="M856.6 55.17L856.6 55.17" stroke="#132e65" stroke-width="1.5"></path><path d="M856.6 55.17L868.36 201.95" stroke="#132e65" stroke-width="1.5"></path><path d="M856.6 55.17L1020.81 80.73" stroke="#132e65" stroke-width="1.5"></path><path d="M868.36 201.95L868.36 201.95" stroke="#132e65" stroke-width="1.5"></path><path d="M868.36 201.95L900.53 356.45" stroke="#132e65" stroke-width="1.5"></path><path d="M868.36 201.95L1036.34 201.78" stroke="#132e65" stroke-width="1.5"></path><path d="M900.53 356.45L900.53 356.45" stroke="#132e65" stroke-width="1.5"></path><path d="M906.8 485.84L906.8 485.84" stroke="#132e65" stroke-width="1.5"></path><path d="M906.8 485.84L996.26 455.63" stroke="#132e65" stroke-width="1.5"></path><path d="M906.8 485.84L868.71 603.42" stroke="#132e65" stroke-width="1.5"></path><path d="M868.71 603.42L868.71 603.42" stroke="#132e65" stroke-width="1.5"></path><path d="M868.71 603.42L1017.73 626.19" stroke="#132e65" stroke-width="1.5"></path><path d="M868.71 603.42L854.63 774.17" stroke="#132e65" stroke-width="1.5"></path><path d="M868.71 603.42L769.78 747.71" stroke="#132e65" stroke-width="1.5"></path><path d="M854.63 774.17L854.63 774.17" stroke="#132e65" stroke-width="1.5"></path><path d="M854.63 774.17L899.89 851.23" stroke="#132e65" stroke-width="1.5"></path><path d="M899.89 851.23L899.89 851.23" stroke="#132e65" stroke-width="1.5"></path><path d="M899.89 851.23L980.75 849.55" stroke="#132e65" stroke-width="1.5"></path><path d="M899.89 851.23L1023.51 756.08" stroke="#132e65" stroke-width="1.5"></path><path d="M899.89 851.23L769.78 747.71" stroke="#132e65" stroke-width="1.5"></path><path d="M1005.37 -72.16L1005.37 -72.16" stroke="#132e65" stroke-width="1.5"></path><path d="M1005.37 -72.16L1132.34 -90.55" stroke="#132e65" stroke-width="1.5"></path><path d="M1005.37 -72.16L1020.81 80.73" stroke="#132e65" stroke-width="1.5"></path><path d="M1005.37 -72.16L856.6 55.17" stroke="#132e65" stroke-width="1.5"></path><path d="M1005.37 -72.16L1169.19 94.37" stroke="#132e65" stroke-width="1.5"></path><path d="M1020.81 80.73L1020.81 80.73" stroke="#132e65" stroke-width="1.5"></path><path d="M1020.81 80.73L1036.34 201.78" stroke="#132e65" stroke-width="1.5"></path><path d="M1020.81 80.73L1115.5 175.98" stroke="#132e65" stroke-width="1.5"></path><path d="M1020.81 80.73L1169.19 94.37" stroke="#132e65" stroke-width="1.5"></path><path d="M1036.34 201.78L1036.34 201.78" stroke="#132e65" stroke-width="1.5"></path><path d="M1036.34 201.78L1115.5 175.98" stroke="#132e65" stroke-width="1.5"></path><path d="M1036.34 201.78L1042.44 310.08" stroke="#132e65" stroke-width="1.5"></path><path d="M1036.34 201.78L1135.85 307.02" stroke="#132e65" stroke-width="1.5"></path><path d="M1036.34 201.78L1169.19 94.37" stroke="#132e65" stroke-width="1.5"></path><path d="M1042.44 310.08L1042.44 310.08" stroke="#132e65" stroke-width="1.5"></path><path d="M1042.44 310.08L1135.85 307.02" stroke="#132e65" stroke-width="1.5"></path><path d="M1042.44 310.08L900.53 356.45" stroke="#132e65" stroke-width="1.5"></path><path d="M1042.44 310.08L996.26 455.63" stroke="#132e65" stroke-width="1.5"></path><path d="M996.26 455.63L996.26 455.63" stroke="#132e65" stroke-width="1.5"></path><path d="M996.26 455.63L900.53 356.45" stroke="#132e65" stroke-width="1.5"></path><path d="M996.26 455.63L1138.98 476.57" stroke="#132e65" stroke-width="1.5"></path><path d="M996.26 455.63L1017.73 626.19" stroke="#132e65" stroke-width="1.5"></path><path d="M996.26 455.63L868.71 603.42" stroke="#132e65" stroke-width="1.5"></path><path d="M1017.73 626.19L1017.73 626.19" stroke="#132e65" stroke-width="1.5"></path><path d="M1017.73 626.19L1023.51 756.08" stroke="#132e65" stroke-width="1.5"></path><path d="M1017.73 626.19L1172.09 616.02" stroke="#132e65" stroke-width="1.5"></path><path d="M1017.73 626.19L906.8 485.84" stroke="#132e65" stroke-width="1.5"></path><path d="M1017.73 626.19L1138.98 476.57" stroke="#132e65" stroke-width="1.5"></path><path d="M1023.51 756.08L1023.51 756.08" stroke="#132e65" stroke-width="1.5"></path><path d="M1023.51 756.08L980.75 849.55" stroke="#132e65" stroke-width="1.5"></path><path d="M980.75 849.55L980.75 849.55" stroke="#132e65" stroke-width="1.5"></path><path d="M980.75 849.55L854.63 774.17" stroke="#132e65" stroke-width="1.5"></path><path d="M1132.34 -90.55L1132.34 -90.55" stroke="#132e65" stroke-width="1.5"></path><path d="M1132.34 -90.55L1169.19 94.37" stroke="#132e65" stroke-width="1.5"></path><path d="M1169.19 94.37L1169.19 94.37" stroke="#132e65" stroke-width="1.5"></path><path d="M1169.19 94.37L1115.5 175.98" stroke="#132e65" stroke-width="1.5"></path><path d="M1169.19 94.37L1135.85 307.02" stroke="#132e65" stroke-width="1.5"></path><path d="M1115.5 175.98L1115.5 175.98" stroke="#132e65" stroke-width="1.5"></path><path d="M1115.5 175.98L1135.85 307.02" stroke="#132e65" stroke-width="1.5"></path><path d="M1135.85 307.02L1135.85 307.02" stroke="#132e65" stroke-width="1.5"></path><path d="M1138.98 476.57L1138.98 476.57" stroke="#132e65" stroke-width="1.5"></path><path d="M1138.98 476.57L1172.09 616.02" stroke="#132e65" stroke-width="1.5"></path><path d="M1138.98 476.57L1135.85 307.02" stroke="#132e65" stroke-width="1.5"></path><path d="M1138.98 476.57L1042.44 310.08" stroke="#132e65" stroke-width="1.5"></path><path d="M1138.98 476.57L906.8 485.84" stroke="#132e65" stroke-width="1.5"></path><path d="M1172.09 616.02L1172.09 616.02" stroke="#132e65" stroke-width="1.5"></path><path d="M1172.09 616.02L1155.12 764.24" stroke="#132e65" stroke-width="1.5"></path><path d="M1155.12 764.24L1155.12 764.24" stroke="#132e65" stroke-width="1.5"></path><path d="M1155.12 764.24L1133.08 845.15" stroke="#132e65" stroke-width="1.5"></path><path d="M1155.12 764.24L1023.51 756.08" stroke="#132e65" stroke-width="1.5"></path><path d="M1155.12 764.24L980.75 849.55" stroke="#132e65" stroke-width="1.5"></path><path d="M1155.12 764.24L1017.73 626.19" stroke="#132e65" stroke-width="1.5"></path><path d="M1133.08 845.15L1133.08 845.15" stroke="#132e65" stroke-width="1.5"></path><path d="M1133.08 845.15L1023.51 756.08" stroke="#132e65" stroke-width="1.5"></path><path d="M1133.08 845.15L980.75 849.55" stroke="#132e65" stroke-width="1.5"></path><path d="M1133.08 845.15L1172.09 616.02" stroke="#132e65" stroke-width="1.5"></path><circle r="5" cx="-89.95" cy="453.15" fill="#132e65"></circle><circle r="5" cx="-38.41" cy="619.2" fill="#132e65"></circle><circle r="5" cx="-79.67" cy="752.42" fill="#132e65"></circle><circle r="5" cx="-98.49" cy="901.09" fill="#132e65"></circle><circle r="5" cx="92.56" cy="441.72" fill="#132e65"></circle><circle r="5" cx="79.94" cy="618.84" fill="#132e65"></circle><circle r="5" cx="65.54" cy="902.92" fill="#132e65"></circle><circle r="5" cx="176.96" cy="599.8" fill="#132e65"></circle><circle r="5" cx="188.46" cy="748.7" fill="#132e65"></circle><circle r="5" cx="168.85" cy="865.63" fill="#132e65"></circle><circle r="5" cx="337.52" cy="606.35" fill="#132e65"></circle><circle r="5" cx="347.16" cy="759.28" fill="#132e65"></circle><circle r="5" cx="332.68" cy="879.3" fill="#132e65"></circle><circle r="5" cx="481.54" cy="318.52" fill="#132e65"></circle><circle r="5" cx="478.19" cy="453.18" fill="#132e65"></circle><circle r="5" cx="481.66" cy="595.78" fill="#132e65"></circle><circle r="5" cx="471.59" cy="757.84" fill="#132e65"></circle><circle r="5" cx="484.15" cy="864.03" fill="#132e65"></circle><circle r="5" cx="604.09" cy="175.05" fill="#132e65"></circle><circle r="5" cx="600.37" cy="450.72" fill="#132e65"></circle><circle r="5" cx="608.13" cy="769.66" fill="#132e65"></circle><circle r="5" cx="615.02" cy="907.29" fill="#132e65"></circle><circle r="5" cx="763.45" cy="-86.15" fill="#132e65"></circle><circle r="5" cx="767.05" cy="38.79" fill="#132e65"></circle><circle r="5" cx="759.93" cy="208.68" fill="#132e65"></circle><circle r="5" cx="775.07" cy="340.73" fill="#132e65"></circle><circle r="5" cx="761.05" cy="462.85" fill="#132e65"></circle><circle r="5" cx="757.92" cy="638.18" fill="#132e65"></circle><circle r="5" cx="769.78" cy="747.71" fill="#132e65"></circle><circle r="5" cx="744.97" cy="848.97" fill="#132e65"></circle><circle r="5" cx="889.77" cy="-85.97" fill="#132e65"></circle><circle r="5" cx="856.6" cy="55.17" fill="#132e65"></circle><circle r="5" cx="868.36" cy="201.95" fill="#132e65"></circle><circle r="5" cx="900.53" cy="356.45" fill="#132e65"></circle><circle r="5" cx="906.8" cy="485.84" fill="#132e65"></circle><circle r="5" cx="868.71" cy="603.42" fill="#132e65"></circle><circle r="5" cx="854.63" cy="774.17" fill="#132e65"></circle><circle r="5" cx="899.89" cy="851.23" fill="#132e65"></circle><circle r="5" cx="1005.37" cy="-72.16" fill="#132e65"></circle><circle r="5" cx="1020.81" cy="80.73" fill="#132e65"></circle><circle r="5" cx="1036.34" cy="201.78" fill="#132e65"></circle><circle r="5" cx="1042.44" cy="310.08" fill="#132e65"></circle><circle r="5" cx="996.26" cy="455.63" fill="#132e65"></circle><circle r="5" cx="1017.73" cy="626.19" fill="#132e65"></circle><circle r="5" cx="1023.51" cy="756.08" fill="#132e65"></circle><circle r="5" cx="980.75" cy="849.55" fill="#132e65"></circle><circle r="5" cx="1132.34" cy="-90.55" fill="#132e65"></circle><circle r="5" cx="1169.19" cy="94.37" fill="#132e65"></circle><circle r="5" cx="1115.5" cy="175.98" fill="#132e65"></circle><circle r="5" cx="1135.85" cy="307.02" fill="#132e65"></circle><circle r="5" cx="1138.98" cy="476.57" fill="#132e65"></circle><circle r="5" cx="1172.09" cy="616.02" fill="#132e65"></circle><circle r="5" cx="1155.12" cy="764.24" fill="#132e65"></circle><circle r="5" cx="1133.08" cy="845.15" fill="#132e65"></circle><path d="M74.86 580.78L74.86 580.78" stroke="hsl(228.5, 77.2%, 51.5%)" stroke-width="1.5"></path><path d="M74.86 580.78L196.83 605.31" stroke="hsl(228.5, 77.2%, 51.5%)" stroke-width="1.5"></path><path d="M74.86 580.78L72.72 718.85" stroke="hsl(228.5, 77.2%, 51.5%)" stroke-width="1.5"></path><path d="M74.86 580.78L-82.4 601.01" stroke="hsl(228.5, 77.2%, 51.5%)" stroke-width="1.5"></path><path d="M74.86 580.78L210.13 753.03" stroke="hsl(228.5, 77.2%, 51.5%)" stroke-width="1.5"></path><path d="M74.86 580.78L-64.35 768.21" stroke="hsl(228.5, 77.2%, 51.5%)" stroke-width="1.5"></path><path d="M210.13 753.03L210.13 753.03" stroke="hsl(228.5, 77.2%, 51.5%)" stroke-width="1.5"></path><path d="M210.13 753.03L72.72 718.85" stroke="hsl(228.5, 77.2%, 51.5%)" stroke-width="1.5"></path><path d="M210.13 753.03L196.83 605.31" stroke="hsl(228.5, 77.2%, 51.5%)" stroke-width="1.5"></path><path d="M449.37 905.92L449.37 905.92" stroke="hsl(228.5, 77.2%, 51.5%)" stroke-width="1.5"></path><path d="M449.37 905.92L355.36 863.79" stroke="hsl(228.5, 77.2%, 51.5%)" stroke-width="1.5"></path><path d="M449.37 905.92L610.58 855.28" stroke="hsl(228.5, 77.2%, 51.5%)" stroke-width="1.5"></path><path d="M449.37 905.92L492.48 713" stroke="hsl(228.5, 77.2%, 51.5%)" stroke-width="1.5"></path><path d="M449.37 905.92L623.37 769.67" stroke="hsl(228.5, 77.2%, 51.5%)" stroke-width="1.5"></path><path d="M449.37 905.92L210.13 753.03" stroke="hsl(228.5, 77.2%, 51.5%)" stroke-width="1.5"></path><path d="M449.37 905.92L505.22 608.78" stroke="hsl(228.5, 77.2%, 51.5%)" stroke-width="1.5"></path><path d="M718.39 443.75L718.39 443.75" stroke="hsl(228.5, 77.2%, 51.5%)" stroke-width="1.5"></path><path d="M718.39 443.75L753.05 342.1" stroke="hsl(228.5, 77.2%, 51.5%)" stroke-width="1.5"></path><path d="M718.39 443.75L851.35 482.1" stroke="hsl(228.5, 77.2%, 51.5%)" stroke-width="1.5"></path><path d="M734.64 634.95L734.64 634.95" stroke="hsl(228.5, 77.2%, 51.5%)" stroke-width="1.5"></path><path d="M734.64 634.95L634.51 625.49" stroke="hsl(228.5, 77.2%, 51.5%)" stroke-width="1.5"></path><path d="M734.64 634.95L872.28 632.89" stroke="hsl(228.5, 77.2%, 51.5%)" stroke-width="1.5"></path><path d="M734.64 634.95L844.54 728.55" stroke="hsl(228.5, 77.2%, 51.5%)" stroke-width="1.5"></path><path d="M734.64 634.95L623.37 769.67" stroke="hsl(228.5, 77.2%, 51.5%)" stroke-width="1.5"></path><path d="M872.28 632.89L872.28 632.89" stroke="hsl(228.5, 77.2%, 51.5%)" stroke-width="1.5"></path><path d="M872.28 632.89L844.54 728.55" stroke="hsl(228.5, 77.2%, 51.5%)" stroke-width="1.5"></path><path d="M872.28 632.89L987.05 605.54" stroke="hsl(228.5, 77.2%, 51.5%)" stroke-width="1.5"></path><path d="M872.28 632.89L851.35 482.1" stroke="hsl(228.5, 77.2%, 51.5%)" stroke-width="1.5"></path><path d="M872.28 632.89L984.97 768.94" stroke="hsl(228.5, 77.2%, 51.5%)" stroke-width="1.5"></path><path d="M1019.79 456.27L1019.79 456.27" stroke="hsl(228.5, 77.2%, 51.5%)" stroke-width="1.5"></path><path d="M1019.79 456.27L1037.74 349.3" stroke="hsl(228.5, 77.2%, 51.5%)" stroke-width="1.5"></path><path d="M1019.79 456.27L1164.55 449.98" stroke="hsl(228.5, 77.2%, 51.5%)" stroke-width="1.5"></path><path d="M1019.79 456.27L987.05 605.54" stroke="hsl(228.5, 77.2%, 51.5%)" stroke-width="1.5"></path><path d="M1019.79 456.27L851.35 482.1" stroke="hsl(228.5, 77.2%, 51.5%)" stroke-width="1.5"></path><path d="M1019.79 456.27L1150.03 331.36" stroke="hsl(228.5, 77.2%, 51.5%)" stroke-width="1.5"></path><path d="M1009.39 888.28L1009.39 888.28" stroke="hsl(228.5, 77.2%, 51.5%)" stroke-width="1.5"></path><path d="M1009.39 888.28L984.97 768.94" stroke="hsl(228.5, 77.2%, 51.5%)" stroke-width="1.5"></path><path d="M1009.39 888.28L887.55 864.86" stroke="hsl(228.5, 77.2%, 51.5%)" stroke-width="1.5"></path><path d="M1150.03 331.36L1150.03 331.36" stroke="hsl(228.5, 77.2%, 51.5%)" stroke-width="1.5"></path><path d="M1150.03 331.36L1037.74 349.3" stroke="hsl(228.5, 77.2%, 51.5%)" stroke-width="1.5"></path><path d="M1150.03 331.36L1164.55 449.98" stroke="hsl(228.5, 77.2%, 51.5%)" stroke-width="1.5"></path><path d="M1150.03 331.36L1178.28 172.81" stroke="hsl(228.5, 77.2%, 51.5%)" stroke-width="1.5"></path><path d="M1177.55 639.43L1177.55 639.43" stroke="hsl(228.5, 77.2%, 51.5%)" stroke-width="1.5"></path><path d="M1177.55 639.43L1148.86 752.57" stroke="hsl(228.5, 77.2%, 51.5%)" stroke-width="1.5"></path><path d="M1177.55 639.43L1164.55 449.98" stroke="hsl(228.5, 77.2%, 51.5%)" stroke-width="1.5"></path><path d="M1177.55 639.43L987.05 605.54" stroke="hsl(228.5, 77.2%, 51.5%)" stroke-width="1.5"></path><path d="M1177.55 639.43L984.97 768.94" stroke="hsl(228.5, 77.2%, 51.5%)" stroke-width="1.5"></path><path d="M1177.55 639.43L1153.68 876.21" stroke="hsl(228.5, 77.2%, 51.5%)" stroke-width="1.5"></path><path d="M-82.4 601.01L-82.4 601.01" stroke="hsl(228.5, 77.2%, 51.5%)" stroke-width="1.5"></path><path d="M-82.4 601.01L-64.35 768.21" stroke="hsl(228.5, 77.2%, 51.5%)" stroke-width="1.5"></path><path d="M-82.4 601.01L72.72 718.85" stroke="hsl(228.5, 77.2%, 51.5%)" stroke-width="1.5"></path><path d="M-82.4 601.01L196.83 605.31" stroke="hsl(228.5, 77.2%, 51.5%)" stroke-width="1.5"></path><path d="M-82.4 601.01L-45.67 897.05" stroke="hsl(228.5, 77.2%, 51.5%)" stroke-width="1.5"></path><path d="M-82.4 601.01L57.77 893.29" stroke="hsl(228.5, 77.2%, 51.5%)" stroke-width="1.5"></path><path d="M-64.35 768.21L-64.35 768.21" stroke="hsl(228.5, 77.2%, 51.5%)" stroke-width="1.5"></path><path d="M-64.35 768.21L-45.67 897.05" stroke="hsl(228.5, 77.2%, 51.5%)" stroke-width="1.5"></path><path d="M-64.35 768.21L72.72 718.85" stroke="hsl(228.5, 77.2%, 51.5%)" stroke-width="1.5"></path><path d="M-45.67 897.05L-45.67 897.05" stroke="hsl(228.5, 77.2%, 51.5%)" stroke-width="1.5"></path><path d="M-45.67 897.05L57.77 893.29" stroke="hsl(228.5, 77.2%, 51.5%)" stroke-width="1.5"></path><path d="M-45.67 897.05L72.72 718.85" stroke="hsl(228.5, 77.2%, 51.5%)" stroke-width="1.5"></path><path d="M-45.67 897.05L210.13 753.03" stroke="hsl(228.5, 77.2%, 51.5%)" stroke-width="1.5"></path><path d="M72.72 718.85L72.72 718.85" stroke="hsl(228.5, 77.2%, 51.5%)" stroke-width="1.5"></path><path d="M72.72 718.85L196.83 605.31" stroke="hsl(228.5, 77.2%, 51.5%)" stroke-width="1.5"></path><path d="M57.77 893.29L57.77 893.29" stroke="hsl(228.5, 77.2%, 51.5%)" stroke-width="1.5"></path><path d="M57.77 893.29L-64.35 768.21" stroke="hsl(228.5, 77.2%, 51.5%)" stroke-width="1.5"></path><path d="M196.83 605.31L196.83 605.31" stroke="hsl(228.5, 77.2%, 51.5%)" stroke-width="1.5"></path><path d="M196.83 605.31L305.79 619.37" stroke="hsl(228.5, 77.2%, 51.5%)" stroke-width="1.5"></path><path d="M305.79 619.37L305.79 619.37" stroke="hsl(228.5, 77.2%, 51.5%)" stroke-width="1.5"></path><path d="M305.79 619.37L210.13 753.03" stroke="hsl(228.5, 77.2%, 51.5%)" stroke-width="1.5"></path><path d="M305.79 619.37L505.22 608.78" stroke="hsl(228.5, 77.2%, 51.5%)" stroke-width="1.5"></path><path d="M355.36 863.79L355.36 863.79" stroke="hsl(228.5, 77.2%, 51.5%)" stroke-width="1.5"></path><path d="M355.36 863.79L210.13 753.03" stroke="hsl(228.5, 77.2%, 51.5%)" stroke-width="1.5"></path><path d="M355.36 863.79L492.48 713" stroke="hsl(228.5, 77.2%, 51.5%)" stroke-width="1.5"></path><path d="M355.36 863.79L305.79 619.37" stroke="hsl(228.5, 77.2%, 51.5%)" stroke-width="1.5"></path><path d="M355.36 863.79L610.58 855.28" stroke="hsl(228.5, 77.2%, 51.5%)" stroke-width="1.5"></path><path d="M355.36 863.79L623.37 769.67" stroke="hsl(228.5, 77.2%, 51.5%)" stroke-width="1.5"></path><path d="M505.22 608.78L505.22 608.78" stroke="hsl(228.5, 77.2%, 51.5%)" stroke-width="1.5"></path><path d="M505.22 608.78L492.48 713" stroke="hsl(228.5, 77.2%, 51.5%)" stroke-width="1.5"></path><path d="M505.22 608.78L634.51 625.49" stroke="hsl(228.5, 77.2%, 51.5%)" stroke-width="1.5"></path><path d="M505.22 608.78L623.37 769.67" stroke="hsl(228.5, 77.2%, 51.5%)" stroke-width="1.5"></path><path d="M505.22 608.78L734.64 634.95" stroke="hsl(228.5, 77.2%, 51.5%)" stroke-width="1.5"></path><path d="M492.48 713L492.48 713" stroke="hsl(228.5, 77.2%, 51.5%)" stroke-width="1.5"></path><path d="M492.48 713L623.37 769.67" stroke="hsl(228.5, 77.2%, 51.5%)" stroke-width="1.5"></path><path d="M634.51 625.49L634.51 625.49" stroke="hsl(228.5, 77.2%, 51.5%)" stroke-width="1.5"></path><path d="M634.51 625.49L623.37 769.67" stroke="hsl(228.5, 77.2%, 51.5%)" stroke-width="1.5"></path><path d="M634.51 625.49L492.48 713" stroke="hsl(228.5, 77.2%, 51.5%)" stroke-width="1.5"></path><path d="M623.37 769.67L623.37 769.67" stroke="hsl(228.5, 77.2%, 51.5%)" stroke-width="1.5"></path><path d="M623.37 769.67L610.58 855.28" stroke="hsl(228.5, 77.2%, 51.5%)" stroke-width="1.5"></path><path d="M610.58 855.28L610.58 855.28" stroke="hsl(228.5, 77.2%, 51.5%)" stroke-width="1.5"></path><path d="M753.05 342.1L753.05 342.1" stroke="hsl(228.5, 77.2%, 51.5%)" stroke-width="1.5"></path><path d="M753.05 342.1L848.73 357.24" stroke="hsl(228.5, 77.2%, 51.5%)" stroke-width="1.5"></path><path d="M894.73 91.85L894.73 91.85" stroke="hsl(228.5, 77.2%, 51.5%)" stroke-width="1.5"></path><path d="M894.73 91.85L1014.87 58.36" stroke="hsl(228.5, 77.2%, 51.5%)" stroke-width="1.5"></path><path d="M894.73 91.85L869.68 220.69" stroke="hsl(228.5, 77.2%, 51.5%)" stroke-width="1.5"></path><path d="M894.73 91.85L1010.7 194.39" stroke="hsl(228.5, 77.2%, 51.5%)" stroke-width="1.5"></path><path d="M894.73 91.85L1008.27 -96.87" stroke="hsl(228.5, 77.2%, 51.5%)" stroke-width="1.5"></path><path d="M869.68 220.69L869.68 220.69" stroke="hsl(228.5, 77.2%, 51.5%)" stroke-width="1.5"></path><path d="M869.68 220.69L848.73 357.24" stroke="hsl(228.5, 77.2%, 51.5%)" stroke-width="1.5"></path><path d="M869.68 220.69L1010.7 194.39" stroke="hsl(228.5, 77.2%, 51.5%)" stroke-width="1.5"></path><path d="M869.68 220.69L753.05 342.1" stroke="hsl(228.5, 77.2%, 51.5%)" stroke-width="1.5"></path><path d="M848.73 357.24L848.73 357.24" stroke="hsl(228.5, 77.2%, 51.5%)" stroke-width="1.5"></path><path d="M848.73 357.24L851.35 482.1" stroke="hsl(228.5, 77.2%, 51.5%)" stroke-width="1.5"></path><path d="M848.73 357.24L718.39 443.75" stroke="hsl(228.5, 77.2%, 51.5%)" stroke-width="1.5"></path><path d="M848.73 357.24L1037.74 349.3" stroke="hsl(228.5, 77.2%, 51.5%)" stroke-width="1.5"></path><path d="M848.73 357.24L1019.79 456.27" stroke="hsl(228.5, 77.2%, 51.5%)" stroke-width="1.5"></path><path d="M851.35 482.1L851.35 482.1" stroke="hsl(228.5, 77.2%, 51.5%)" stroke-width="1.5"></path><path d="M844.54 728.55L844.54 728.55" stroke="hsl(228.5, 77.2%, 51.5%)" stroke-width="1.5"></path><path d="M844.54 728.55L887.55 864.86" stroke="hsl(228.5, 77.2%, 51.5%)" stroke-width="1.5"></path><path d="M844.54 728.55L984.97 768.94" stroke="hsl(228.5, 77.2%, 51.5%)" stroke-width="1.5"></path><path d="M844.54 728.55L987.05 605.54" stroke="hsl(228.5, 77.2%, 51.5%)" stroke-width="1.5"></path><path d="M844.54 728.55L623.37 769.67" stroke="hsl(228.5, 77.2%, 51.5%)" stroke-width="1.5"></path><path d="M887.55 864.86L887.55 864.86" stroke="hsl(228.5, 77.2%, 51.5%)" stroke-width="1.5"></path><path d="M887.55 864.86L984.97 768.94" stroke="hsl(228.5, 77.2%, 51.5%)" stroke-width="1.5"></path><path d="M1008.27 -96.87L1008.27 -96.87" stroke="hsl(228.5, 77.2%, 51.5%)" stroke-width="1.5"></path><path d="M1008.27 -96.87L1126.9 -83.57" stroke="hsl(228.5, 77.2%, 51.5%)" stroke-width="1.5"></path><path d="M1008.27 -96.87L1014.87 58.36" stroke="hsl(228.5, 77.2%, 51.5%)" stroke-width="1.5"></path><path d="M1008.27 -96.87L1167.02 94.81" stroke="hsl(228.5, 77.2%, 51.5%)" stroke-width="1.5"></path><path d="M1008.27 -96.87L1010.7 194.39" stroke="hsl(228.5, 77.2%, 51.5%)" stroke-width="1.5"></path><path d="M1014.87 58.36L1014.87 58.36" stroke="hsl(228.5, 77.2%, 51.5%)" stroke-width="1.5"></path><path d="M1010.7 194.39L1010.7 194.39" stroke="hsl(228.5, 77.2%, 51.5%)" stroke-width="1.5"></path><path d="M1010.7 194.39L1014.87 58.36" stroke="hsl(228.5, 77.2%, 51.5%)" stroke-width="1.5"></path><path d="M1037.74 349.3L1037.74 349.3" stroke="hsl(228.5, 77.2%, 51.5%)" stroke-width="1.5"></path><path d="M1037.74 349.3L1010.7 194.39" stroke="hsl(228.5, 77.2%, 51.5%)" stroke-width="1.5"></path><path d="M987.05 605.54L987.05 605.54" stroke="hsl(228.5, 77.2%, 51.5%)" stroke-width="1.5"></path><path d="M987.05 605.54L984.97 768.94" stroke="hsl(228.5, 77.2%, 51.5%)" stroke-width="1.5"></path><path d="M987.05 605.54L851.35 482.1" stroke="hsl(228.5, 77.2%, 51.5%)" stroke-width="1.5"></path><path d="M984.97 768.94L984.97 768.94" stroke="hsl(228.5, 77.2%, 51.5%)" stroke-width="1.5"></path><path d="M984.97 768.94L1148.86 752.57" stroke="hsl(228.5, 77.2%, 51.5%)" stroke-width="1.5"></path><path d="M1126.9 -83.57L1126.9 -83.57" stroke="hsl(228.5, 77.2%, 51.5%)" stroke-width="1.5"></path><path d="M1126.9 -83.57L1014.87 58.36" stroke="hsl(228.5, 77.2%, 51.5%)" stroke-width="1.5"></path><path d="M1126.9 -83.57L1167.02 94.81" stroke="hsl(228.5, 77.2%, 51.5%)" stroke-width="1.5"></path><path d="M1126.9 -83.57L1178.28 172.81" stroke="hsl(228.5, 77.2%, 51.5%)" stroke-width="1.5"></path><path d="M1126.9 -83.57L894.73 91.85" stroke="hsl(228.5, 77.2%, 51.5%)" stroke-width="1.5"></path><path d="M1167.02 94.81L1167.02 94.81" stroke="hsl(228.5, 77.2%, 51.5%)" stroke-width="1.5"></path><path d="M1167.02 94.81L1178.28 172.81" stroke="hsl(228.5, 77.2%, 51.5%)" stroke-width="1.5"></path><path d="M1167.02 94.81L1014.87 58.36" stroke="hsl(228.5, 77.2%, 51.5%)" stroke-width="1.5"></path><path d="M1178.28 172.81L1178.28 172.81" stroke="hsl(228.5, 77.2%, 51.5%)" stroke-width="1.5"></path><path d="M1164.55 449.98L1164.55 449.98" stroke="hsl(228.5, 77.2%, 51.5%)" stroke-width="1.5"></path><path d="M1164.55 449.98L1037.74 349.3" stroke="hsl(228.5, 77.2%, 51.5%)" stroke-width="1.5"></path><path d="M1148.86 752.57L1148.86 752.57" stroke="hsl(228.5, 77.2%, 51.5%)" stroke-width="1.5"></path><path d="M1148.86 752.57L1153.68 876.21" stroke="hsl(228.5, 77.2%, 51.5%)" stroke-width="1.5"></path><path d="M1153.68 876.21L1153.68 876.21" stroke="hsl(228.5, 77.2%, 51.5%)" stroke-width="1.5"></path><path d="M1153.68 876.21L1009.39 888.28" stroke="hsl(228.5, 77.2%, 51.5%)" stroke-width="1.5"></path><circle r="25" cx="74.86" cy="580.78" fill="url(#SvgjsRadialGradient1028)"></circle><circle r="25" cx="210.13" cy="753.03" fill="url(#SvgjsRadialGradient1028)"></circle><circle r="25" cx="449.37" cy="905.92" fill="url(#SvgjsRadialGradient1028)"></circle><circle r="25" cx="718.39" cy="443.75" fill="url(#SvgjsRadialGradient1028)"></circle><circle r="25" cx="734.64" cy="634.95" fill="url(#SvgjsRadialGradient1028)"></circle><circle r="25" cx="872.28" cy="632.89" fill="url(#SvgjsRadialGradient1028)"></circle><circle r="25" cx="1019.79" cy="456.27" fill="url(#SvgjsRadialGradient1028)"></circle><circle r="25" cx="1009.39" cy="888.28" fill="url(#SvgjsRadialGradient1028)"></circle><circle r="25" cx="1150.03" cy="331.36" fill="url(#SvgjsRadialGradient1028)"></circle><circle r="25" cx="1177.55" cy="639.43" fill="url(#SvgjsRadialGradient1028)"></circle><circle r="5" cx="-82.4" cy="601.01" fill="#8b9ad9"></circle><circle r="5" cx="-64.35" cy="768.21" fill="#8b9ad9"></circle><circle r="5" cx="-45.67" cy="897.05" fill="#8b9ad9"></circle><circle r="5" cx="72.72" cy="718.85" fill="#8b9ad9"></circle><circle r="5" cx="57.77" cy="893.29" fill="#8b9ad9"></circle><circle r="5" cx="196.83" cy="605.31" fill="#8b9ad9"></circle><circle r="5" cx="305.79" cy="619.37" fill="#8b9ad9"></circle><circle r="5" cx="355.36" cy="863.79" fill="#8b9ad9"></circle><circle r="5" cx="505.22" cy="608.78" fill="#8b9ad9"></circle><circle r="5" cx="492.48" cy="713" fill="#8b9ad9"></circle><circle r="5" cx="634.51" cy="625.49" fill="#8b9ad9"></circle><circle r="5" cx="623.37" cy="769.67" fill="#8b9ad9"></circle><circle r="5" cx="610.58" cy="855.28" fill="#8b9ad9"></circle><circle r="5" cx="753.05" cy="342.1" fill="#8b9ad9"></circle><circle r="5" cx="894.73" cy="91.85" fill="#8b9ad9"></circle><circle r="5" cx="869.68" cy="220.69" fill="#8b9ad9"></circle><circle r="5" cx="848.73" cy="357.24" fill="#8b9ad9"></circle><circle r="5" cx="851.35" cy="482.1" fill="#8b9ad9"></circle><circle r="5" cx="844.54" cy="728.55" fill="#8b9ad9"></circle><circle r="5" cx="887.55" cy="864.86" fill="#8b9ad9"></circle><circle r="5" cx="1008.27" cy="-96.87" fill="#8b9ad9"></circle><circle r="5" cx="1014.87" cy="58.36" fill="#8b9ad9"></circle><circle r="5" cx="1010.7" cy="194.39" fill="#8b9ad9"></circle><circle r="5" cx="1037.74" cy="349.3" fill="#8b9ad9"></circle><circle r="5" cx="987.05" cy="605.54" fill="#8b9ad9"></circle><circle r="5" cx="984.97" cy="768.94" fill="#8b9ad9"></circle><circle r="5" cx="1126.9" cy="-83.57" fill="#8b9ad9"></circle><circle r="5" cx="1167.02" cy="94.81" fill="#8b9ad9"></circle><circle r="5" cx="1178.28" cy="172.81" fill="#8b9ad9"></circle><circle r="5" cx="1164.55" cy="449.98" fill="#8b9ad9"></circle><circle r="5" cx="1148.86" cy="752.57" fill="#8b9ad9"></circle><circle r="5" cx="1153.68" cy="876.21" fill="#8b9ad9"></circle></g><defs><mask id="SvgjsMask1027"><rect width="1080" height="720" fill="#ffffff"></rect></mask><radialGradient id="SvgjsRadialGradient1028"><stop stop-color="#ffffff" offset="0.1"></stop><stop stop-color="#1735b3" offset="0.2"></stop><stop stop-color="rgba(23, 53, 179, 0)" offset="1"></stop></radialGradient></defs></svg>